<svg width="180" height="180" viewBox="0 0 180 180" fill="none" xmlns="http://www.w3.org/2000/svg">
<rect width="180" height="180" fill="black"/>
<path d="M77.634 52.66H82.008V52.498C80.712 52.066 79.254 51.796 77.634 51.688V52.66ZM112.302 33.544H112.14V33.706L112.302 33.544ZM123.48 33.544C123.804 33.868 124.02 34.084 124.128 34.192V33.544H123.48ZM59.49 35.488C59.598 35.596 59.652 35.92 59.652 36.46H60.462V34.192H58.194C58.41 34.408 58.626 34.624 58.842 34.84C59.166 35.056 59.382 35.272 59.49 35.488ZM62.73 34.192H61.434V35.812C61.434 35.704 61.488 35.596 61.596 35.488C61.704 35.272 61.866 35.056 62.082 34.84C62.406 34.624 62.622 34.408 62.73 34.192ZM93.186 34.192C93.942 34.408 94.536 34.57 94.968 34.678V34.192H93.186ZM123.966 38.242C123.966 38.35 124.02 38.512 124.128 38.728V36.784C123.912 37.432 123.858 37.918 123.966 38.242ZM125.1 39.052H127.368V36.784H125.1V39.052ZM60.3 39.214C60.3 39.538 60.246 39.7 60.138 39.7H60.462V37.432H59.976C59.976 37.756 59.976 38.08 59.976 38.404C60.084 38.62 60.192 38.89 60.3 39.214ZM125.424 41.644C125.64 41.86 125.91 42.076 126.234 42.292H127.368V40.024H125.1V40.996C125.208 41.212 125.316 41.428 125.424 41.644ZM128.34 42.292H130.608V40.024H128.34V42.292ZM59.976 42.778C59.976 42.994 59.976 43.048 59.976 42.94H60.138C60.138 42.076 60.192 41.32 60.3 40.672H60.138C60.138 40.996 60.084 41.374 59.976 41.806C59.976 42.13 59.976 42.454 59.976 42.778ZM65.322 42.94C65.214 42.184 65.16 41.59 65.16 41.158C65.16 41.698 65.16 42.13 65.16 42.454C65.268 42.67 65.322 42.832 65.322 42.94ZM128.34 43.912C128.664 44.128 128.988 44.344 129.312 44.56C129.744 44.776 130.176 44.992 130.608 45.208V43.264H128.34V43.912ZM131.58 45.532H133.848V43.264H131.58V45.532ZM60.462 45.856C60.246 45.316 60.138 44.668 60.138 43.912H59.976C59.976 44.776 60.03 45.532 60.138 46.18H60.462V45.856ZM65.808 45.694C65.7 45.046 65.592 44.452 65.484 43.912H65.322C65.43 44.344 65.484 44.776 65.484 45.208C65.484 45.532 65.484 45.856 65.484 46.18H65.97C65.97 45.964 65.916 45.802 65.808 45.694ZM108.9 45.856H107.928V44.074C107.172 44.83 106.2 45.532 105.012 46.18H111.168V44.56C111.168 44.344 111.114 44.182 111.006 44.074C111.006 43.858 111.006 43.804 111.006 43.912H108.9V45.856ZM132.552 46.504C132.768 46.72 132.984 46.882 133.2 46.99C133.524 47.098 133.74 47.206 133.848 47.314V46.504H132.552ZM60.462 47.476V47.152V47.476ZM66.78 51.202C66.78 51.31 66.834 51.364 66.942 51.364V48.61C66.618 48.286 66.456 48.016 66.456 47.8C66.348 47.692 66.24 47.476 66.132 47.152H65.646C65.754 47.908 65.916 48.556 66.132 49.096C66.24 49.42 66.294 49.798 66.294 50.23C66.402 50.662 66.564 50.986 66.78 51.202ZM104.688 48.286C105.012 48.178 105.336 48.07 105.66 47.962C105.984 47.854 106.308 47.746 106.632 47.638C106.74 47.53 106.848 47.476 106.956 47.476C107.172 47.368 107.334 47.314 107.442 47.314C107.658 47.314 107.982 47.476 108.414 47.8C108.846 48.016 109.17 48.178 109.386 48.286C109.494 48.394 109.602 48.448 109.71 48.448C109.926 48.448 110.088 48.502 110.196 48.61C110.196 48.718 110.25 48.988 110.358 49.42H112.788C112.788 48.988 112.734 48.61 112.626 48.286C112.518 47.962 112.356 47.584 112.14 47.152H103.068C102.096 47.584 101.124 47.962 100.152 48.286C99.288 48.61 98.586 48.988 98.046 49.42H103.23C103.554 49.096 104.04 48.718 104.688 48.286ZM61.434 50.554H62.082C61.866 49.906 61.65 49.42 61.434 49.096V50.554ZM68.4 50.554C68.292 50.446 68.13 50.23 67.914 49.906V52.012C69.102 52.876 69.858 53.362 70.182 53.47V51.04H70.02C69.804 50.932 69.534 50.878 69.21 50.878C68.886 50.77 68.616 50.662 68.4 50.554ZM95.454 52.66H101.124C101.34 52.228 101.556 51.796 101.772 51.364C101.988 50.932 102.204 50.608 102.42 50.392H97.074C96.75 50.716 96.426 51.094 96.102 51.526C95.886 51.85 95.67 52.228 95.454 52.66ZM110.682 51.85C110.682 52.066 110.574 52.336 110.358 52.66H112.626C112.842 52.444 113.004 52.228 113.112 52.012C113.112 51.796 113.058 51.526 112.95 51.202C112.95 50.77 112.95 50.5 112.95 50.392H110.52C110.628 51.04 110.682 51.526 110.682 51.85ZM62.244 51.526H61.434V53.794H63.702C63.486 53.47 63.27 53.146 63.054 52.822C62.946 52.39 62.784 51.958 62.568 51.526C62.568 51.418 62.46 51.148 62.244 50.716V51.526ZM72.612 54.766C72.612 54.766 72.612 54.82 72.612 54.928H73.422V51.526C72.558 51.526 71.802 51.472 71.154 51.364V53.956C71.694 54.28 72.072 54.496 72.288 54.604C72.504 54.712 72.612 54.766 72.612 54.766ZM75.204 51.526C74.988 51.526 74.718 51.526 74.394 51.526V54.928H76.662V51.526C76.23 51.526 75.744 51.526 75.204 51.526ZM93.186 55.9H97.56C98.208 55.468 98.748 55.036 99.18 54.604C99.72 54.172 100.098 53.848 100.314 53.632H94.968C94.104 54.928 93.51 55.684 93.186 55.9ZM109.71 53.794C109.386 54.442 109.008 55.144 108.576 55.9H109.548C110.412 55.036 111.114 54.28 111.654 53.632H109.872L109.71 53.794ZM86.22 55.9H87.678C87.462 55.684 87.192 55.468 86.868 55.252C86.652 55.036 86.436 54.82 86.22 54.604V55.9ZM61.434 57.034H63.702V54.766H61.434V57.034ZM65.484 60.274V60.436C65.592 60.436 65.646 60.382 65.646 60.274C65.862 60.058 66.078 59.842 66.294 59.626C66.51 59.302 66.726 59.086 66.942 58.978V57.358C66.834 57.25 66.672 57.142 66.456 57.034C66.348 56.818 66.24 56.656 66.132 56.548C65.916 56.332 65.646 56.17 65.322 56.062C65.106 55.846 64.89 55.63 64.674 55.414V60.274H65.484ZM60.462 57.034V55.738C60.246 56.17 59.976 56.602 59.652 57.034H60.462ZM71.964 55.9C71.856 56.008 71.694 56.224 71.478 56.548C71.37 56.764 71.262 56.926 71.154 57.034V57.358C72.018 57.142 72.774 56.98 73.422 56.872V55.9H71.964ZM75.69 56.71C75.798 56.71 75.906 56.71 76.014 56.71C76.23 56.71 76.446 56.71 76.662 56.71V55.9H74.394V56.71C74.826 56.71 75.258 56.71 75.69 56.71ZM78.606 58.168H79.902V55.9H77.634V57.034C77.85 57.25 78.012 57.466 78.12 57.682C78.336 57.898 78.498 58.06 78.606 58.168ZM89.46 58.492H88.488V56.872H86.22V59.14H95.292C95.292 58.492 95.346 58.06 95.454 57.844C95.562 57.628 95.886 57.304 96.426 56.872H92.052C91.62 57.196 91.296 57.412 91.08 57.52C90.972 57.52 90.756 57.466 90.432 57.358C90.216 57.142 90 56.98 89.784 56.872H89.46V58.492ZM68.4 57.52C68.292 57.52 68.184 57.574 68.076 57.682C68.076 57.682 68.022 57.682 67.914 57.682V58.492C68.346 58.384 68.616 58.276 68.724 58.168C69.264 57.952 69.75 57.79 70.182 57.682V57.358C69.858 57.358 69.534 57.412 69.21 57.52C68.886 57.52 68.616 57.52 68.4 57.52ZM58.194 60.274H60.462V58.006H59.004C58.788 58.33 58.518 58.654 58.194 58.978V60.274ZM61.434 60.274H63.702V58.006H61.434V60.274ZM79.578 61.408H79.902V59.14H79.416V59.302C79.632 59.518 79.686 59.842 79.578 60.274C79.578 60.706 79.578 61.084 79.578 61.408ZM57.222 60.274V59.95L56.898 60.274H57.222ZM55.602 61.57C55.494 61.678 55.278 61.84 54.954 62.056V63.514H57.222V61.246H55.926L55.602 61.57ZM58.194 63.514H60.462V61.246H58.194V63.514ZM61.434 63.514H63.702V61.246H61.434V63.514ZM64.674 61.408C64.674 61.3 64.728 61.246 64.836 61.246H64.674V61.57V61.408ZM79.902 64.648V62.38H79.74C79.632 63.136 79.524 63.892 79.416 64.648H79.902ZM64.674 63.19C64.674 63.082 64.674 62.812 64.674 62.38V63.514H64.836L64.674 63.19ZM53.982 63.514V63.028C53.442 63.46 53.28 63.622 53.496 63.514H53.982ZM51.714 66.754H53.982V64.486H52.686C52.362 65.026 52.038 65.62 51.714 66.268V66.754ZM54.954 66.754H57.222V64.486H54.954V66.754ZM58.194 66.754H60.462V64.486H58.194V66.754ZM61.434 66.754H63.702V64.486H61.434V66.754ZM64.674 66.754H65.322C65.106 65.89 64.944 65.134 64.836 64.486H64.674V66.754ZM78.606 67.888H79.902V65.62H79.254C79.146 66.376 78.93 67.132 78.606 67.888ZM83.142 67.888V65.62H80.874V67.888H83.142ZM51.714 68.536H50.742C50.526 69.184 50.31 69.67 50.094 69.994H53.982V67.726H51.714V68.536ZM54.954 69.994H57.222V67.726H54.954V69.994ZM58.194 69.994H60.462V67.726H58.194V69.994ZM61.434 69.994H63.702V67.726H61.434V69.994ZM65.646 67.888V67.726H64.674V69.994H66.456C66.132 69.346 65.862 68.644 65.646 67.888ZM78.12 69.832C78.012 70.048 77.904 70.264 77.796 70.48C77.796 70.696 77.796 70.912 77.796 71.128H79.902V68.86H78.444C78.336 69.184 78.228 69.508 78.12 69.832ZM81.846 72.1H80.874V76.474H83.142V68.86H80.874V71.128H81.846V72.1ZM48.474 73.234H50.256C50.472 73.018 50.634 72.856 50.742 72.748V70.966H49.284C48.744 71.506 48.474 71.776 48.474 71.776V73.234ZM54.954 71.776H53.982V70.966H51.714V72.586C51.93 72.586 52.2 72.64 52.524 72.748C52.848 72.748 53.064 72.748 53.172 72.748C53.496 72.748 53.766 72.802 53.982 72.91V72.1H54.954V73.072L55.278 73.234H57.222V70.966H54.954V71.776ZM58.194 73.234H60.462V70.966H58.194V73.234ZM61.434 73.234H63.702V70.966H61.434V73.234ZM64.674 73.234H66.942V70.966H64.674V73.234ZM77.634 76.474H79.902V72.1H77.634V76.474ZM67.914 73.234H69.048C68.616 72.91 68.238 72.532 67.914 72.1V73.234ZM90.594 96.076H89.622V72.748H90.594V96.076ZM74.718 75.178C74.61 75.178 74.502 75.178 74.394 75.178V76.474H76.662V73.396C76.446 73.612 76.23 73.828 76.014 74.044C75.798 74.152 75.582 74.26 75.366 74.368C75.258 74.476 75.15 74.638 75.042 74.854C74.934 74.962 74.826 75.07 74.718 75.178ZM97.074 76.474H99.342V74.206H97.074V76.474ZM100.314 76.474H102.582V74.206H100.314V76.474ZM48.474 74.206V74.854C48.69 74.638 48.906 74.422 49.122 74.206H48.474ZM58.194 74.368C59.166 74.8 59.922 75.07 60.462 75.178V74.206H58.194V74.368ZM61.434 75.34C61.974 75.448 62.46 75.502 62.892 75.502C63.324 75.502 63.594 75.556 63.702 75.664V74.206H61.434V75.34ZM65.484 76.474H66.942V74.206H64.674V75.988C64.89 76.096 65.16 76.258 65.484 76.474ZM67.914 76.474H70.182V74.206H67.914V76.474ZM71.316 74.854H71.154V76.474H73.422V75.016C73.206 75.016 73.044 75.016 72.936 75.016C72.72 75.016 72.45 75.016 72.126 75.016C71.802 75.016 71.532 74.962 71.316 74.854ZM93.834 79.714H96.102V77.446H93.834V79.714ZM97.074 79.714H99.342V77.446H97.074V79.714ZM100.314 79.714H102.582V77.446H100.314V79.714ZM103.554 79.714H105.822V77.446H103.554V79.714ZM106.794 79.714H114.246V77.446H106.794V79.714ZM115.218 79.714H117.486V77.446H115.218V79.714ZM120.726 77.446H118.458V79.714H120.726V77.446ZM67.914 79.228H67.428C67.428 79.336 67.428 79.444 67.428 79.552H67.914V79.714H70.182V77.446H67.914V79.228ZM71.154 79.714H73.422V77.446H71.154V79.714ZM74.394 79.714H76.662V77.446H74.394V79.714ZM77.634 79.714H79.902V77.446H77.634V79.714ZM80.874 79.714H83.142V77.446H80.874V79.714ZM84.114 79.714H86.382V77.446H84.114V79.714ZM97.074 82.954H99.342V80.686H97.074V82.954ZM100.314 82.954H102.582V80.686H100.314V82.954ZM103.554 82.954H105.822V80.686H103.554V82.954ZM112.626 82.63C112.842 82.738 113.112 82.846 113.436 82.954H114.246V80.686H106.794V82.954H108.576L108.9 82.792C109.008 82.792 109.116 82.792 109.224 82.792C109.44 82.792 109.602 82.792 109.71 82.792C109.926 82.792 110.196 82.792 110.52 82.792V81.496H111.492V82.63C111.924 82.63 112.302 82.63 112.626 82.63ZM115.218 82.954H117.486V80.686H115.218V82.954ZM118.458 82.954H120.726V80.686H118.458V82.954ZM73.422 80.686H71.154V82.954H73.422V80.686ZM74.394 82.954H76.662V80.686H74.394V82.954ZM77.634 82.954H79.902V80.686H77.634V82.954ZM80.874 82.954H83.142V80.686H80.874V82.954ZM84.114 82.954H86.382V80.686H84.114V82.954ZM66.942 82.954V82.306C66.942 82.306 66.834 82.522 66.618 82.954H66.942ZM103.554 86.194H105.498C105.606 85.762 105.714 85.438 105.822 85.222V83.926H103.554V86.194ZM107.118 84.088C107.226 84.088 107.334 84.034 107.442 83.926H106.794V84.412C106.902 84.304 107.01 84.196 107.118 84.088ZM116.514 84.412C116.73 84.52 117.054 84.682 117.486 84.898V83.926H115.542C115.974 84.142 116.298 84.304 116.514 84.412ZM118.944 85.546C119.268 85.546 119.538 85.546 119.754 85.546C120.078 85.438 120.402 85.33 120.726 85.222V83.926H118.458V85.384C118.674 85.492 118.836 85.546 118.944 85.546ZM122.508 84.898C122.616 84.79 122.778 84.466 122.994 83.926H121.698V85.06C122.13 84.952 122.4 84.898 122.508 84.898ZM66.132 87.328H65.322V87.49C65.322 87.814 65.322 88.192 65.322 88.624C65.43 88.948 65.538 89.272 65.646 89.596H66.942V87.166H66.456V86.194H66.942V83.926H66.132L65.97 84.088C65.754 84.844 65.592 85.6 65.484 86.356H66.132V87.328ZM67.914 86.194H70.182V83.926H67.914V86.194ZM71.154 86.194H73.422V83.926H71.154V86.194ZM74.394 86.194H76.662V83.926H74.394V86.194ZM77.634 86.194H79.902V83.926H77.634V86.194ZM82.008 87.166H80.874V89.434H83.142V83.926H80.874V86.194H82.008V87.166ZM84.276 90.406H84.114V92.674H86.382V83.926H84.114V89.434H84.276V90.406ZM103.878 89.434H104.364C104.58 88.462 104.85 87.706 105.174 87.166H103.554V92.836C103.662 92.404 103.77 92.026 103.878 91.702C103.986 91.27 104.094 90.838 104.202 90.406H103.878V89.434ZM68.724 89.434H70.182V87.166H67.914V89.596H68.724V89.434ZM71.154 89.434H73.422V87.166H71.154V89.434ZM74.394 89.434H76.662V87.166H74.394V89.434ZM77.634 89.434H79.902V87.166H77.634V89.434ZM68.724 90.568H67.914V92.836H70.182V90.406H68.724V90.568ZM71.964 93.808H71.154V96.076H71.316C72.288 95.86 72.99 95.752 73.422 95.752V93.646H72.288V92.674H73.422V90.406H71.154V92.836H71.964V93.808ZM77.634 91.864H76.662V90.406H74.394V92.674H79.902V90.406H77.634V91.864ZM80.874 92.674H83.142V90.406H80.874V92.674ZM66.942 92.836V90.568H65.808C65.916 90.892 65.97 91.27 65.97 91.702C66.078 92.026 66.132 92.404 66.132 92.836H66.942ZM74.394 93.646V95.752C74.826 95.752 75.204 95.752 75.528 95.752C75.96 95.752 76.338 95.698 76.662 95.59V93.646H74.394ZM80.874 94.132H79.902V93.646H77.634V95.59C78.498 95.59 79.254 95.59 79.902 95.59V94.78H80.874V95.59C81.522 95.698 82.062 95.806 82.494 95.914H83.142V95.752H84.114V95.914H86.382V93.646H84.114V95.428H83.142V93.646H80.874V94.132ZM66.456 94.78C66.456 95.212 66.402 95.644 66.294 96.076H66.942V93.808H66.294L66.456 94.78ZM67.914 96.076H70.182V93.808H67.914V96.076ZM86.058 97.21C86.166 97.21 86.274 97.21 86.382 97.21V96.886H85.248C85.572 96.994 85.842 97.102 86.058 97.21ZM65.97 99.316H66.942V97.048H66.294C66.186 97.48 66.132 97.912 66.132 98.344C66.132 98.668 66.078 98.992 65.97 99.316ZM67.914 97.048V97.858C68.13 97.426 68.292 97.156 68.4 97.048H67.914ZM75.528 100.288C75.204 100.396 74.826 100.558 74.394 100.774V102.394H76.662V100.126H76.176L75.528 100.288ZM77.634 102.394H79.902V100.126H77.634V102.394ZM80.874 102.394H83.142V100.126H80.874V102.394ZM71.964 101.908C71.748 101.908 71.478 101.908 71.154 101.908V102.394H73.422V101.26C72.774 101.584 72.288 101.8 71.964 101.908ZM71.154 105.634H73.422V103.366H71.154V105.634ZM74.394 105.634H76.662V103.366H74.394V105.634ZM77.634 105.634H79.902V103.366H77.634V105.634ZM80.874 105.634H83.142V103.366H80.874V105.634ZM71.154 108.874H73.422V106.606H71.154V108.874ZM74.394 108.874H76.662V106.606H74.394V108.874ZM77.634 108.874H79.902V106.606H77.634V108.874ZM81.684 109.846H80.874V115.192H83.142V106.606H80.874V108.874H81.684V109.846ZM71.154 112.114H73.422V109.846H71.154V112.114ZM74.394 112.114H76.662V109.846H74.394V112.114ZM79.092 113.086H77.634V124.912H79.902V122.644H78.12V121.672H79.902V119.404H79.092V118.432H79.902V109.846H77.634V112.114H79.092V113.086ZM62.244 113.572H63.702V111.142C63.27 112.006 62.784 112.816 62.244 113.572ZM112.95 118.756H115.218V114.706H112.95V118.756ZM116.19 116.974H118.458V114.706H116.19V116.974ZM80.874 118.432H83.142V116.164H80.874V118.432ZM90.594 118.756H92.862V116.488H90.594V118.756ZM93.834 118.756H96.102V116.488H93.834V118.756ZM117.972 119.728H116.19V121.996H118.458V117.946H116.19V118.756H117.972V119.728ZM120.564 122.968H119.43V125.236H121.698V121.186H120.24V120.214H121.698V117.946H119.43V121.996H120.564V122.968ZM124.29 119.242C124.398 119.134 124.614 119.08 124.938 119.08V117.946H122.67V120.214H123.48C123.804 119.674 124.074 119.35 124.29 119.242ZM126.396 118.918C127.044 118.81 127.746 118.702 128.502 118.594C129.258 118.378 129.906 118.162 130.446 117.946H125.91V118.918C126.126 118.918 126.288 118.918 126.396 118.918ZM80.874 121.672H83.142V119.404H80.874V121.672ZM84.114 121.672H86.382V119.404H84.114V121.672ZM92.7 121.672V121.996H92.862V119.728H90.594V121.672H92.7ZM93.834 121.672H96.102V119.728H93.834V121.672ZM97.074 121.672H98.208C98.316 121.348 98.478 120.97 98.694 120.538C98.91 120.106 99.126 119.836 99.342 119.728H97.074V121.672ZM111.654 121.996H111.978V119.728H109.872C110.196 120.052 110.52 120.43 110.844 120.862C111.168 121.294 111.438 121.672 111.654 121.996ZM112.95 121.996H115.218V119.728H112.95V121.996ZM58.356 123.292H63.864V121.024H58.356V123.292ZM64.836 123.292H67.104V121.024H64.836V123.292ZM68.076 123.292H70.344V121.024H68.076V123.292ZM122.67 121.186V121.51C122.67 121.402 122.724 121.294 122.832 121.186H122.67ZM52.848 130.744H51.876V133.012H54.144V121.996C53.496 122.32 52.848 122.644 52.2 122.968C52.092 122.968 51.984 122.968 51.876 122.968V123.292H52.524V124.264H51.876V129.772H52.848V130.744ZM80.874 124.912H83.142V122.644H80.874V124.912ZM84.114 124.912H86.382V122.644H84.114V124.912ZM87.354 124.912H89.622V122.644H87.354V124.912ZM121.86 132.688H121.374C121.482 133.12 121.536 133.336 121.536 133.336C121.644 133.444 121.698 133.606 121.698 133.822C121.806 133.93 121.914 134.038 122.022 134.146V131.392H122.994V137.71H124.938V135.442H123.48V134.47H124.938V127.666C124.182 126.694 123.588 125.668 123.156 124.588C123.048 124.372 122.94 124.102 122.832 123.778C122.832 123.454 122.778 123.13 122.67 122.806V130.42H121.698V129.448H119.754V131.23C119.862 131.338 119.97 131.446 120.078 131.554C120.294 131.554 120.456 131.608 120.564 131.716H121.86V132.688ZM49.122 122.968C49.014 122.968 48.852 122.914 48.636 122.806V123.292H49.608C49.284 123.184 49.122 123.076 49.122 122.968ZM90.594 124.912H92.862V122.968H90.594V124.912ZM93.834 124.912H96.102V122.968H93.834V124.912ZM98.046 124.75C98.046 124.534 97.992 124.264 97.884 123.94C97.776 123.616 97.668 123.292 97.56 122.968H97.074V124.912H98.046V124.75ZM116.19 124.912H115.218V122.968H112.14C112.356 123.292 112.518 123.67 112.626 124.102C112.842 124.534 113.058 124.912 113.274 125.236H118.458V122.968H116.19V124.912ZM58.356 126.532H63.864V124.264H58.356V126.532ZM64.836 126.532H67.104V124.264H64.836V126.532ZM68.076 126.532H70.344V124.264H68.076V126.532ZM48.636 126.532H50.904V124.264H48.636V126.532ZM77.634 128.152H79.902V125.884H77.634V128.152ZM80.874 128.152H83.142V125.884H80.874V128.152ZM84.114 128.152H86.382V125.884H84.114V128.152ZM89.46 126.208V125.884H87.354V128.152H89.622V126.208H89.46ZM90.594 128.152H92.862V126.208H90.594V128.152ZM93.834 128.152H96.102V126.208H93.834V128.152ZM97.074 128.152H99.342C98.91 127.396 98.64 126.748 98.532 126.208H97.074V128.152ZM119.43 127.18H118.458V126.208H113.76C114.192 126.964 114.678 127.612 115.218 128.152C115.326 128.26 115.434 128.368 115.542 128.476V126.532H116.514V128.476H118.782V127.828H119.754V128.476H121.698V126.208H119.43V127.18ZM58.356 129.772H63.864V127.504H58.356V129.772ZM64.836 129.772H67.104V127.504H64.836V129.772ZM68.076 129.772H70.344V127.504H68.076V129.772ZM48.636 129.772H50.904V127.504H48.636V129.772ZM125.91 131.23H128.178V130.906C127.314 130.258 126.558 129.556 125.91 128.8V131.23ZM77.634 131.392H79.902V129.124H77.634V131.392ZM80.874 131.392H83.142V129.124H80.874V131.392ZM84.114 131.392H86.382V129.124H84.114V131.392ZM88.488 129.448V129.124H87.354V131.392H89.622V129.448H88.488ZM90.594 131.392H92.862V129.448H90.594V131.392ZM93.834 131.392H96.102V129.448H93.834V131.392ZM97.074 131.392H99.342V129.448H97.074V131.392ZM116.838 129.448C117.162 129.664 117.486 129.88 117.81 130.096C118.134 130.312 118.458 130.474 118.782 130.582V129.448H116.838ZM100.314 131.392H100.638C100.53 131.068 100.422 130.798 100.314 130.582V131.392ZM64.836 133.012H67.104V130.744H64.836V133.012ZM68.076 133.012H70.344V130.744H68.076V133.012ZM48.636 133.012H50.904V130.744H48.636V133.012ZM125.91 134.47H128.178V132.202H125.91V134.47ZM131.094 133.012C130.554 132.688 130.122 132.418 129.798 132.202H129.15V134.47H131.418V133.174L131.094 133.012ZM80.874 134.632H83.142V132.364H80.874V134.632ZM84.114 134.632H86.382V132.364H84.114V134.632ZM88.812 132.688V132.364H87.354V134.632H89.622V132.688H88.812ZM90.594 134.632H92.862V132.688H90.594V134.632ZM93.834 134.632H96.102V132.688H93.834V134.632ZM97.074 134.632H99.342V132.688H97.074V134.632ZM101.124 133.012C101.124 132.904 101.07 132.796 100.962 132.688H100.314V134.632H101.286C101.286 133.984 101.232 133.444 101.124 133.012ZM134.01 134.146C133.254 134.038 132.714 133.876 132.39 133.66V134.47H134.658V134.308C134.226 134.2 134.01 134.146 134.01 134.146ZM67.104 136.252V133.984H64.836V136.252H67.104ZM68.076 138.034H70.344V133.984H68.076V138.034ZM48.636 136.252H50.904V133.984H48.636V136.252ZM51.876 136.252H54.144V133.984H51.876V136.252ZM125.91 137.71H128.178V135.442H125.91V137.71ZM129.15 137.71H131.418V135.442H129.15V137.71ZM132.39 137.71H134.658V135.442H132.39V137.71ZM84.114 137.872H86.382V135.604H84.114V137.872ZM87.354 137.872H89.622V135.604H87.354V137.872ZM90.594 137.872H92.862V135.604H90.594V137.872ZM93.834 137.872H96.102V135.604H93.834V137.872ZM97.074 137.872H99.342V135.604H97.074V137.872ZM100.314 137.872H101.772C101.772 137.548 101.718 137.224 101.61 136.9C101.61 136.468 101.556 136.036 101.448 135.604H100.314V137.872ZM71.316 138.034H73.584V135.766H71.316V138.034ZM76.824 135.766H74.556V138.034H76.824V135.766ZM67.104 137.224H64.836V138.034H67.104V137.224ZM48.636 139.492H50.904V137.224H48.636V139.492ZM51.876 139.492H54.144V137.224H51.876V139.492ZM122.994 140.95H124.938V138.682H122.994V140.95ZM125.91 140.95H128.178V138.682H125.91V140.95ZM129.15 140.95H131.418V138.682H129.15V140.95ZM87.354 141.112H89.622V138.844H87.354V141.112ZM90.594 141.112H92.862V138.844H90.594V141.112ZM93.834 141.112H96.102V138.844H93.834V141.112ZM97.074 141.112H99.342V138.844H97.074V141.112ZM100.314 141.112H102.582V140.788C102.366 140.248 102.15 139.6 101.934 138.844H100.314V141.112ZM64.836 141.274H67.104V139.006H64.836V141.274ZM68.076 141.274H70.344V139.006H68.076V141.274ZM71.316 141.274H73.584V139.006H71.316V141.274ZM74.556 141.274H76.824V139.006H74.556V141.274ZM59.328 133.012H63.864V130.744H58.356V141.274H63.864V139.006H59.004V138.034H63.864V137.224H63.54V136.252H63.864V133.984H59.328V133.012ZM67.914 82.954H70.182V80.686H67.914V82.954ZM63.864 117.784H58.68C58.572 117.892 58.464 118 58.356 118.108C58.248 118.216 58.248 118.216 58.356 118.108V120.052H63.864V117.784ZM48.636 141.76H47.664V140.464H46.368V139.492H47.664V137.224H45.396V136.252H47.664V133.984H45.072V133.012H47.664V130.744H45.072V129.772H47.664V127.504H45.072V126.532H47.664V124.264H45.072V123.292H47.664V122.482C47.34 122.374 47.124 122.266 47.016 122.158C46.908 122.05 46.8 121.942 46.692 121.834C46.692 121.618 46.692 121.456 46.692 121.348C46.584 121.24 46.53 121.132 46.53 121.024H45.072V120.052H45.882C45.666 119.512 45.504 119.08 45.396 118.756C45.288 118.432 45.234 118.108 45.234 117.784H45.072V116.812C45.072 116.38 45.018 115.948 44.91 115.516C44.91 114.976 44.91 114.49 44.91 114.058C44.91 112.762 44.91 111.52 44.91 110.332C44.91 109.144 44.91 107.956 44.91 106.768C44.91 104.284 44.91 101.476 44.91 98.344C44.91 95.212 44.91 92.404 44.91 89.92C44.91 87.868 44.964 85.816 45.072 83.764C45.288 81.604 45.828 79.552 46.692 77.608V77.446H46.044V76.474H47.178L47.502 75.988V74.206H45.72V73.234H47.502V72.424C47.394 72.316 47.286 72.262 47.178 72.262C47.178 72.154 47.124 72.046 47.016 71.938C46.908 71.83 46.692 71.722 46.368 71.614C46.152 71.398 45.99 71.182 45.882 70.966H45.072V69.994H45.396C45.396 69.778 45.342 69.562 45.234 69.346C45.234 69.13 45.234 68.86 45.234 68.536C45.126 68.32 45.072 68.05 45.072 67.726V67.402C44.856 64.918 44.748 61.894 44.748 58.33C44.856 54.766 44.91 51.904 44.91 49.744C44.91 47.908 44.91 45.964 44.91 43.912C44.91 41.86 45.18 39.916 45.72 38.08C45.936 37.54 46.206 37 46.53 36.46C47.286 35.272 48.15 34.3 49.122 33.544V33.22H49.608L50.256 32.896L50.742 32.572H50.904C51.876 32.248 52.902 32.14 53.982 32.248V31.924H54.954V32.41L55.278 32.572C55.602 32.572 55.926 32.626 56.25 32.734C56.574 32.734 56.844 32.788 57.06 32.896C57.06 33.004 57.114 33.058 57.222 33.058V31.924H58.194V33.22H60.462V31.924H61.434V33.22H63.702V32.248H64.674V32.572C65.43 32.356 66.24 32.14 67.104 31.924C68.292 31.708 69.534 31.654 70.83 31.762C72.126 31.762 73.368 31.816 74.556 31.924C77.688 32.032 80.604 32.032 83.304 31.924C83.952 31.924 84.546 31.924 85.086 31.924C85.626 31.924 86.22 31.924 86.868 31.924C86.976 31.924 87.192 31.978 87.516 32.086C87.948 32.086 88.164 32.086 88.164 32.086C88.164 32.086 88.056 32.086 87.84 32.086C87.516 32.194 87.192 32.302 86.868 32.41C86.652 32.518 86.382 32.572 86.058 32.572C85.734 32.68 85.464 32.788 85.248 32.896C86.976 33.004 88.326 33.112 89.298 33.22H91.728V32.248H92.7V33.22H94.968V31.924H95.94V33.22H96.75V34.192H95.94V35.002C96.156 35.002 96.372 35.056 96.588 35.164C96.804 35.164 97.02 35.164 97.236 35.164C97.56 35.164 97.884 35.11 98.208 35.002V31.924H99.18V34.678C99.72 34.57 100.206 34.408 100.638 34.192C101.07 33.976 101.34 33.868 101.448 33.868V31.924H102.42V33.382C103.068 33.058 103.5 32.896 103.716 32.896C103.932 32.788 104.256 32.788 104.688 32.896V31.924H105.66V33.22C105.876 33.22 106.092 33.274 106.308 33.382C106.524 33.382 106.74 33.436 106.956 33.544C107.064 33.652 107.172 33.814 107.28 34.03C107.496 34.246 107.658 34.408 107.766 34.516L107.928 34.678V31.924H108.9V35.812C109.224 36.136 109.44 36.568 109.548 37.108C109.656 37.432 109.764 37.81 109.872 38.242C110.088 38.674 110.196 39.052 110.196 39.376C110.196 39.7 110.142 40.024 110.034 40.348C109.926 40.672 109.818 40.942 109.71 41.158C109.71 41.374 109.656 41.644 109.548 41.968C109.548 42.184 109.494 42.4 109.386 42.616C109.278 42.724 109.17 42.832 109.062 42.94H110.844C110.736 41.968 110.628 40.942 110.52 39.862C110.412 38.782 110.52 37.756 110.844 36.784H109.548V35.812H111.168V31.924H112.14V32.572H114.246L114.408 32.41V31.924H115.38V32.086L115.542 31.924C115.866 31.816 116.244 31.762 116.676 31.762C117.216 31.762 117.702 31.762 118.134 31.762C118.674 31.762 119.16 31.816 119.592 31.924C120.132 31.924 120.564 31.924 120.888 31.924H121.86V32.086C122.184 32.086 122.4 32.14 122.508 32.248C122.616 32.248 122.724 32.356 122.832 32.572H131.904V33.544H125.1V35.812H127.368V34.84H128.34V35.812H135.144V36.784H128.34V39.052H130.608V38.08H131.58V39.052H136.116V40.024H131.58V42.292H133.848V41.644H134.82V42.292H136.44V43.264H134.82V45.532H136.44V46.504H134.82V48.61L134.982 48.772H136.44V49.744H135.468C135.792 50.5 136.008 51.256 136.116 52.012H136.44V52.984H136.278C136.278 53.308 136.332 53.632 136.44 53.956C136.44 54.388 136.386 54.982 136.278 55.738C136.17 56.386 136.062 56.926 135.954 57.358C135.846 57.682 135.684 58.06 135.468 58.492C135.252 58.816 135.036 59.14 134.82 59.464C134.712 59.68 134.604 59.896 134.496 60.112C134.388 60.328 134.28 60.544 134.172 60.76C133.956 60.868 133.74 60.976 133.524 61.084C133.308 61.192 133.092 61.3 132.876 61.408C132.228 61.732 131.58 62.002 130.932 62.218C130.392 62.434 129.798 62.596 129.15 62.704C127.098 63.028 125.046 63.19 122.994 63.19C121.05 63.19 119.052 63.19 117 63.19C116.136 63.19 115.272 63.19 114.408 63.19C113.544 63.082 112.68 62.974 111.816 62.866C111.6 62.866 111.33 62.866 111.006 62.866C110.682 62.758 110.412 62.65 110.196 62.542C109.98 62.434 109.71 62.272 109.386 62.056C109.17 61.84 108.954 61.678 108.738 61.57C108.63 61.462 108.414 61.3 108.09 61.084C107.766 60.868 107.55 60.652 107.442 60.436C107.442 60.328 107.496 60.058 107.604 59.626C107.712 59.194 107.766 58.924 107.766 58.816C107.874 58.492 107.928 58.168 107.928 57.844C108.036 57.52 108.144 57.25 108.252 57.034C108.252 57.034 108.306 56.98 108.414 56.872H107.766C106.794 58.168 105.714 59.302 104.526 60.274C103.122 61.354 101.556 62.002 99.828 62.218C99.612 62.326 99.342 62.434 99.018 62.542C98.694 62.542 98.37 62.542 98.046 62.542C97.722 62.434 97.344 62.272 96.912 62.056C96.588 61.84 96.264 61.624 95.94 61.408C95.832 61.3 95.67 61.246 95.454 61.246C95.346 61.246 95.238 61.138 95.13 60.922C95.13 60.814 95.13 60.706 95.13 60.598C95.238 60.382 95.292 60.22 95.292 60.112H85.734V59.464H85.248V56.872H83.142V55.9H85.248V53.794C85.14 53.794 85.032 53.74 84.924 53.632H82.98V57.844H82.008V53.632H77.634V54.928H81.198V55.9H80.874V58.168H82.818V59.14H80.874V61.408H83.79V62.38H80.874V64.648H83.79V65.296H84.114V76.474H86.382V71.128H87.354V76.474H87.84V77.446H87.354V79.714H88.812V80.686H87.354V82.954H88.164V83.926H87.354V96.076H86.868V96.4H87.354V97.534C88.11 97.75 88.866 97.912 89.622 98.02V96.724H90.594V98.182C91.35 98.29 92.106 98.344 92.862 98.344H93.834V98.506H93.996C94.32 98.506 94.698 98.56 95.13 98.668C95.67 98.668 96.156 98.614 96.588 98.506C97.02 98.506 97.614 98.398 98.37 98.182C99.126 97.966 99.72 97.75 100.152 97.534C100.368 97.426 100.584 97.264 100.8 97.048C101.016 96.724 101.178 96.454 101.286 96.238C101.502 96.022 101.718 95.86 101.934 95.752C102.15 95.536 102.366 95.266 102.582 94.942V87.166H100.962V86.194H102.582V83.926H100.314V97.372H99.342V83.926H97.074V96.724H96.102V83.926H95.778V82.954H96.102V80.686H93.834V96.4H92.862V80.686H91.89V79.714H92.862V77.446H91.242V76.474H92.862V73.396H93.834V76.474H96.102V74.206H95.778V73.234H115.218V74.206H103.554V76.474H105.822V75.988H106.794V76.474H114.246V75.826H115.218V76.474H117.486V74.206H118.458V76.474H120.726V73.882H121.698V79.714H123.318V80.686H121.698V82.954H123.48C123.696 82.63 123.858 82.306 123.966 81.982V73.882H124.938V79.552C125.046 79.012 125.208 78.688 125.424 78.58C125.532 78.364 126.072 78.094 127.044 77.77H127.206V74.854H128.178V77.608C128.934 77.392 129.474 77.338 129.798 77.446C129.906 77.554 130.122 77.77 130.446 78.094V77.77H131.418V78.904C131.85 79.336 132.12 79.66 132.228 79.876C132.444 80.2 132.552 80.686 132.552 81.334C132.66 81.874 132.768 82.306 132.876 82.63C133.092 83.386 133.2 84.196 133.2 85.06C133.2 85.924 133.2 86.734 133.2 87.49C133.092 89.326 132.984 91.216 132.876 93.16C132.768 94.996 132.282 96.616 131.418 98.02V98.83H130.932C130.824 99.046 130.716 99.262 130.608 99.478C130.5 99.694 130.392 99.91 130.284 100.126C130.068 100.342 129.798 100.558 129.474 100.774C129.15 100.882 128.88 100.99 128.664 101.098C128.34 101.314 128.07 101.53 127.854 101.746C127.638 101.962 127.368 102.124 127.044 102.232C126.828 102.34 126.558 102.448 126.234 102.556C125.91 102.556 125.586 102.556 125.262 102.556C125.154 102.664 125.046 102.718 124.938 102.718H124.776C123.588 102.934 122.4 103.096 121.212 103.204C120.024 103.204 118.836 103.204 117.648 103.204C115.164 103.204 112.086 103.258 108.414 103.366C104.85 103.366 101.88 103.204 99.504 102.88C97.992 102.664 96.48 102.448 94.968 102.232C93.564 102.016 92.106 101.746 90.594 101.422V102.88H89.622V101.26C88.542 101.044 87.786 100.882 87.354 100.774V105.148H86.382V100.45C86.058 100.45 85.734 100.45 85.41 100.45C85.194 100.342 84.924 100.234 84.6 100.126H84.114V102.394H85.572V103.366H84.114V115.192H86.22V116.164H84.114V118.432H86.382V109.36H87.354V118.432H89.136V119.404H87.354V121.672H89.622V119.728H89.46V118.756H89.622V116.488H89.46V115.516H89.622V112.276H90.594V115.516H92.862V113.572H93.834V115.516H107.604V116.488H97.074V118.756H99.342V118.432H100.314V118.756H101.61C102.042 118.54 102.42 118.378 102.744 118.27C103.608 118.162 104.472 118.162 105.336 118.27C106.308 118.378 107.118 118.54 107.766 118.756H111.978V113.896H112.14V113.734H130.284V114.706H119.43V116.974H121.698V114.868H122.67V116.974H124.938V116.488H125.91V116.974H132.228V117.298C132.768 116.974 133.092 116.812 133.2 116.812C133.308 116.704 133.416 116.65 133.524 116.65C133.74 116.542 133.902 116.488 134.01 116.488C134.118 116.488 134.226 116.542 134.334 116.65C134.55 116.758 134.712 116.812 134.82 116.812C135.036 116.92 135.36 117.082 135.792 117.298C136.224 117.514 136.494 117.73 136.602 117.946C136.818 118.162 136.98 118.54 137.088 119.08C137.196 119.512 137.304 119.89 137.412 120.214C137.952 121.726 138.168 123.454 138.06 125.398C138.06 127.234 137.952 129.016 137.736 130.744C137.736 130.852 137.682 131.014 137.574 131.23H137.736V132.202H137.088C136.98 132.418 136.818 132.634 136.602 132.85C136.494 132.958 136.386 133.12 136.278 133.336C136.17 133.444 136.062 133.606 135.954 133.822C135.846 134.038 135.738 134.2 135.63 134.308V134.47H137.736V135.442H135.63V137.71H137.088V138.682H135.63V140.14H134.658V138.682H132.39V140.95H135.468V141.922H132.39V143.38H131.418V141.922H129.15V144.352H128.178V141.922H125.91V142.732H124.938V141.922H122.508V141.112H122.022V137.872C121.914 138.736 121.698 139.546 121.374 140.302C121.266 140.518 121.158 140.788 121.05 141.112C120.942 141.436 120.78 141.706 120.564 141.922C120.456 142.03 120.186 142.246 119.754 142.57V143.38H118.782V143.218C118.026 143.758 117.27 144.136 116.514 144.352C115.002 144.676 113.382 144.892 111.654 145C109.926 145.108 108.306 144.946 106.794 144.514V144.676H105.822V144.19L105.336 143.866C105.12 143.758 104.796 143.65 104.364 143.542C104.04 143.434 103.77 143.272 103.554 143.056V145H102.582V142.084H100.314V145H99.342V142.084H97.074V145H96.102V142.084H93.834V145H92.862V142.084H90.594V144.676H89.622V142.084H87.354V144.028H86.382V142.084H84.276V141.112H86.382V138.844H84.114V142.408H83.142V138.844H81.036V137.872H83.142V135.604H80.874V139.492H79.902V135.604H78.444V134.632H79.902V132.364H76.5V131.392H76.662V129.124H76.176V128.152H76.662V113.086H74.394V122.968H73.422V113.086H71.154V113.248H70.182V109.846H69.372V108.874H70.182V106.606H69.048V105.634H70.182V103.366H70.02V102.394H70.182V102.07H70.02C69.912 102.07 69.696 102.124 69.372 102.232C69.048 102.232 68.778 102.178 68.562 102.07C68.454 102.07 68.346 102.016 68.238 101.908C68.238 101.692 68.238 101.53 68.238 101.422C68.13 101.314 68.022 101.206 67.914 101.098V113.248H66.942V100.288H65.97C65.862 100.828 65.808 101.314 65.808 101.746C65.7 102.934 65.592 104.122 65.484 105.31C65.376 106.39 65.16 107.416 64.836 108.388C64.836 108.604 64.782 108.82 64.674 109.036V113.572H69.696V114.544H64.674V115.516H63.702V114.544H61.434V116.488H60.462V115.84C60.246 116.164 59.976 116.488 59.652 116.812H70.668V117.784H64.836V120.052H67.104V118.432H68.076V120.052H71.316V123.292H71.64V124.264H71.316V126.532H71.64V127.504H71.316V129.772H71.64V130.744H71.316V134.794H73.584V124.912H74.556V134.794H76.824V133.66H77.796V138.034H78.444V139.006H77.796V143.38H76.824V142.246H74.556V144.352H73.584V142.246H71.316V144.676H70.344V142.246H68.076V144.676H67.104V142.246H64.836V144.676H63.864V142.246H58.356V144.676H57.384V130.744H57.06V129.772H57.384V127.504H55.44V126.532H57.384V124.264H56.088V123.292H57.384V121.024H56.736V120.052H57.384V119.242C56.952 119.674 56.52 120.052 56.088 120.376V121.024H55.44C55.332 121.132 55.224 121.186 55.116 121.186V144.352H54.144V140.464H51.876V143.704H50.904V140.464H48.636V141.76Z" fill="#B5B8A9"/>
<rect x="8" y="55.3797" width="76.1945" height="42.2651" transform="rotate(-46.6205 8 55.3797)" fill="black"/>
</svg>
